<svg xmlns="http://www.w3.org/2000/svg" xmlns:xlink="http://www.w3.org/1999/xlink"><symbol id="icon-arrow" viewBox="0 0 16 16">
<path d="M8 1V15" stroke="white" stroke-width="2" stroke-linecap="round" stroke-linejoin="round"/>
<path d="M15 8L8 15L1 8" stroke="white" stroke-width="2" stroke-linecap="round" stroke-linejoin="round"/>
</symbol><symbol id="icon-phone-orange" viewBox="0 0 17 24">
<path d="M1.3961 6.62432C1.31155 5.42623 1.57729 4.24606 2.2809 3.29684C2.8909 2.43632 3.68511 1.96636 4.64239 1.69172C5.44868 1.4525 5.97715 1.74561 6.20968 2.64204C6.54186 3.98224 7.01598 5.3225 7.18811 6.73361C7.24247 7.35485 6.84084 8.23322 6.40598 8.6856C5.31583 9.75888 5.54232 10.5399 6.36976 12.1643C6.62644 12.6881 7.03412 13.5934 7.82834 14.7919C8.65577 15.9992 9.09364 16.6472 10.1566 16.0975C11.3374 15.5035 12.198 15.8855 13.0889 16.8444C13.6928 17.5369 14.3572 18.1318 14.9612 18.8243C15.8339 19.8542 15.7946 20.5641 15.1121 21.2915C13.8831 22.6309 11.8538 23.0736 10.3439 22.1766C9.51039 21.6881 8.67994 21.0487 8.0186 20.303C5.10447 16.9825 3.00266 13.1212 1.73735 8.76321C1.53502 8.02654 1.4414 7.28104 1.3961 6.62432Z" stroke="#FE7865" stroke-width="2" stroke-miterlimit="10"/>
</symbol><symbol id="icon-phone" viewBox="0 0 17 24">
<path d="M1.3961 6.62432C1.31155 5.42623 1.57729 4.24606 2.2809 3.29684C2.8909 2.43632 3.68511 1.96636 4.64239 1.69172C5.44868 1.4525 5.97715 1.74561 6.20968 2.64204C6.54186 3.98224 7.01598 5.3225 7.18811 6.73361C7.24247 7.35485 6.84084 8.23322 6.40598 8.6856C5.31583 9.75888 5.54232 10.5399 6.36976 12.1643C6.62644 12.6881 7.03412 13.5934 7.82834 14.7919C8.65577 15.9992 9.09364 16.6472 10.1566 16.0975C11.3374 15.5035 12.198 15.8855 13.0889 16.8444C13.6928 17.5369 14.3572 18.1318 14.9612 18.8243C15.8339 19.8542 15.7946 20.5641 15.1121 21.2915C13.8831 22.6309 11.8538 23.0736 10.3439 22.1766C9.51039 21.6881 8.67994 21.0487 8.0186 20.303C5.10447 16.9825 3.00266 13.1212 1.73735 8.76321C1.53502 8.02654 1.4414 7.28104 1.3961 6.62432Z" stroke="#141517" stroke-width="2" stroke-miterlimit="10"/>
</symbol><symbol id="icon-tick" viewBox="0 0 14 12">
<path fill-rule="evenodd" clip-rule="evenodd" d="M13.6138 0.210585C14.0498 0.549578 14.1285 1.17784 13.7895 1.61385L6.01453 11.6138C5.84138 11.8365 5.58223 11.9758 5.30094 11.9972C5.01966 12.0186 4.74242 11.9202 4.53757 11.7262L0.312502 7.72623C-0.0885582 7.34653 -0.105878 6.71361 0.273818 6.31255C0.653514 5.91149 1.28644 5.89417 1.6875 6.27386L5.11216 9.51608L12.2105 0.386246C12.5495 -0.0497617 13.1778 -0.128408 13.6138 0.210585Z" fill="#FE7865"/>
</symbol></svg>